<?xml version="1.0" encoding="UTF-8" standalone="no"?>
<svg
   xmlns:dc="http://purl.org/dc/elements/1.1/"
   xmlns:cc="http://creativecommons.org/ns#"
   xmlns:rdf="http://www.w3.org/1999/02/22-rdf-syntax-ns#"
   xmlns:svg="http://www.w3.org/2000/svg"
   xmlns="http://www.w3.org/2000/svg"
   viewBox="0 0 66.426666 59.669334"
   height="22px"
   width="30px"
   xml:space="preserve"
   id="svg2"
   version="1.1"><metadata
     id="metadata8"><rdf:RDF><cc:Work
         rdf:about=""><dc:format>image/svg+xml</dc:format><dc:type
           rdf:resource="http://purl.org/dc/dcmitype/StillImage" /></cc:Work></rdf:RDF></metadata><defs
     id="defs6"><clipPath
       id="clipPath18"
       clipPathUnits="userSpaceOnUse"><path
         id="path16"
         d="M 0,44.752 H 49.82 V 0 H 0 Z" /></clipPath></defs><g
     transform="matrix(1.3333333,0,0,-1.3333333,0,59.669333)"
     id="g10"><g
       id="g12"><g
         clip-path="url(#clipPath18)"
         id="g14"><g
           transform="translate(48.781,26.581)"
           id="g20"><path
             id="path22"
             style="fill:#FFFFFF;fill-opacity:1;fill-rule:nonzero;stroke:none"
             d="m 0,0 h -7.512 v 7.51 c 0,0.573 -0.465,1.039 -1.037,1.039 h -2.139 c -0.576,0 -1.041,-0.466 -1.041,-1.039 V 0 h -7.512 c -0.572,0 -1.039,-0.467 -1.039,-1.041 V -3.18 c 0,-0.574 0.467,-1.039 1.039,-1.039 h 7.512 v -7.514 c 0,-0.574 0.465,-1.039 1.041,-1.039 h 2.139 c 0.572,0 1.037,0.465 1.037,1.039 v 7.515 H 0 c 0.572,0 1.039,0.465 1.039,1.039 V -1.04 C 1.039,-0.466 0.572,0 0,0" /></g><g
           transform="translate(10.94,39.575)"
           id="g24"><path
             id="path26"
             style="fill:#FFFFFF;fill-opacity:1;fill-rule:nonzero;stroke:none"
             d="M 0,0 C 0.703,0.803 1.624,1.227 2.658,1.227 L 2.775,1.225 C 5.696,1.139 8.491,-2.116 9.005,-6.031 9.294,-8.223 8.806,-10.284 7.704,-11.54 6.999,-12.345 6.091,-12.769 5.015,-12.769 H 5.013 4.966 C 2.105,-12.681 -0.75,-9.302 -1.261,-5.392 -1.548,-3.206 -1.088,-1.241 0,0 m -4.094,-29.357 c 0,3.107 3.947,5.832 8.446,5.832 h 0.121 c 0.979,-0.012 1.934,-0.156 2.834,-0.432 0.309,-0.213 0.607,-0.416 0.893,-0.611 2.084,-1.42 3.461,-2.357 3.844,-3.861 0.09,-0.379 0.135,-0.758 0.135,-1.125 0,-3.869 -2.885,-5.83 -8.578,-5.83 -4.315,0 -7.695,2.646 -7.695,6.027 m 16.691,9.777 c -1.58,1.119 -3.016,2.76 -3.041,3.264 0,0.918 0.082,1.357 2.141,2.961 2.662,2.084 4.128,4.824 4.128,7.719 0,2.625 -0.802,4.957 -2.167,6.595 h 1.059 c 0.219,0 0.434,0.068 0.609,0.196 l 2.955,2.141 c 0.367,0.263 0.521,0.732 0.381,1.161 -0.141,0.428 -0.537,0.72 -0.988,0.72 H 4.458 c -1.446,0 -2.915,-0.255 -4.357,-0.751 -4.816,-1.661 -8.184,-5.765 -8.184,-9.978 0,-5.969 4.624,-10.493 10.805,-10.635 -0.121,-0.473 -0.182,-0.939 -0.182,-1.396 0,-0.92 0.233,-1.791 0.713,-2.633 h -0.17 c -5.892,0 -11.21,-2.891 -13.229,-7.193 -0.526,-1.119 -0.794,-2.25 -0.794,-3.367 0,-1.086 0.279,-2.131 0.826,-3.113 1.269,-2.27 3.994,-4.031 7.677,-4.961 1.901,-0.48 3.944,-0.725 6.065,-0.725 1.906,0 3.723,0.246 5.403,0.732 5.238,1.521 8.625,5.377 8.625,9.828 -10e-4,4.271 -1.374,6.828 -5.059,9.435" /></g></g></g></g></svg>